<mxfile host="app.diagrams.net" modified="2022-04-28T07:57:18.576Z" agent="5.0 (X11)" etag="SrLgqmZ289Lsa6Hmqt-P" version="17.4.6" type="github">
  <diagram id="W6hRS4fxS_qQSNCNkSlv" name="Page-1">
    <mxGraphModel dx="677" dy="349" grid="1" gridSize="10" guides="1" tooltips="1" connect="1" arrows="1" fold="1" page="1" pageScale="1" pageWidth="850" pageHeight="1100" math="0" shadow="0">
      <root>
        <mxCell id="0" />
        <mxCell id="1" parent="0" />
        <mxCell id="PxHE6Z1qSMxtlgOlSAJU-2" value="" style="endArrow=none;dashed=1;html=1;rounded=0;startArrow=none;" edge="1" parent="1" source="PxHE6Z1qSMxtlgOlSAJU-13">
          <mxGeometry width="50" height="50" relative="1" as="geometry">
            <mxPoint x="320" y="480" as="sourcePoint" />
            <mxPoint x="320" y="180" as="targetPoint" />
          </mxGeometry>
        </mxCell>
        <mxCell id="PxHE6Z1qSMxtlgOlSAJU-3" value="" style="endArrow=none;dashed=1;html=1;rounded=0;startArrow=none;" edge="1" parent="1" source="PxHE6Z1qSMxtlgOlSAJU-8">
          <mxGeometry width="50" height="50" relative="1" as="geometry">
            <mxPoint x="600" y="480" as="sourcePoint" />
            <mxPoint x="600" y="180" as="targetPoint" />
          </mxGeometry>
        </mxCell>
        <mxCell id="PxHE6Z1qSMxtlgOlSAJU-4" value="" style="rounded=0;whiteSpace=wrap;html=1;" vertex="1" parent="1">
          <mxGeometry x="310" y="200" width="20" height="30" as="geometry" />
        </mxCell>
        <mxCell id="PxHE6Z1qSMxtlgOlSAJU-5" value="" style="endArrow=classic;html=1;rounded=0;exitX=1;exitY=0.5;exitDx=0;exitDy=0;dashed=1;" edge="1" parent="1" source="PxHE6Z1qSMxtlgOlSAJU-4">
          <mxGeometry width="50" height="50" relative="1" as="geometry">
            <mxPoint x="510" y="350" as="sourcePoint" />
            <mxPoint x="600" y="215" as="targetPoint" />
          </mxGeometry>
        </mxCell>
        <mxCell id="PxHE6Z1qSMxtlgOlSAJU-6" value="Name" style="edgeLabel;html=1;align=center;verticalAlign=middle;resizable=0;points=[];" vertex="1" connectable="0" parent="PxHE6Z1qSMxtlgOlSAJU-5">
          <mxGeometry x="-0.1396" y="1" relative="1" as="geometry">
            <mxPoint y="-7" as="offset" />
          </mxGeometry>
        </mxCell>
        <mxCell id="PxHE6Z1qSMxtlgOlSAJU-8" value="" style="rounded=0;whiteSpace=wrap;html=1;" vertex="1" parent="1">
          <mxGeometry x="590" y="240" width="20" height="30" as="geometry" />
        </mxCell>
        <mxCell id="PxHE6Z1qSMxtlgOlSAJU-9" value="" style="endArrow=none;dashed=1;html=1;rounded=0;" edge="1" parent="1" target="PxHE6Z1qSMxtlgOlSAJU-8">
          <mxGeometry width="50" height="50" relative="1" as="geometry">
            <mxPoint x="600" y="330" as="sourcePoint" />
            <mxPoint x="600" y="160" as="targetPoint" />
          </mxGeometry>
        </mxCell>
        <mxCell id="PxHE6Z1qSMxtlgOlSAJU-10" value="" style="endArrow=classic;html=1;rounded=0;dashed=1;exitX=0;exitY=0.5;exitDx=0;exitDy=0;" edge="1" parent="1" source="PxHE6Z1qSMxtlgOlSAJU-8">
          <mxGeometry width="50" height="50" relative="1" as="geometry">
            <mxPoint x="480" y="300" as="sourcePoint" />
            <mxPoint x="320" y="255" as="targetPoint" />
          </mxGeometry>
        </mxCell>
        <mxCell id="PxHE6Z1qSMxtlgOlSAJU-11" value="Name Received" style="edgeLabel;html=1;align=center;verticalAlign=middle;resizable=0;points=[];" vertex="1" connectable="0" parent="PxHE6Z1qSMxtlgOlSAJU-10">
          <mxGeometry x="-0.1396" y="1" relative="1" as="geometry">
            <mxPoint x="-14" y="-9" as="offset" />
          </mxGeometry>
        </mxCell>
        <mxCell id="PxHE6Z1qSMxtlgOlSAJU-13" value="" style="rounded=0;whiteSpace=wrap;html=1;" vertex="1" parent="1">
          <mxGeometry x="310" y="280" width="20" height="30" as="geometry" />
        </mxCell>
        <mxCell id="PxHE6Z1qSMxtlgOlSAJU-14" value="" style="endArrow=none;dashed=1;html=1;rounded=0;" edge="1" parent="1" target="PxHE6Z1qSMxtlgOlSAJU-13">
          <mxGeometry width="50" height="50" relative="1" as="geometry">
            <mxPoint x="320" y="330" as="sourcePoint" />
            <mxPoint x="320" y="160" as="targetPoint" />
          </mxGeometry>
        </mxCell>
        <mxCell id="PxHE6Z1qSMxtlgOlSAJU-15" value="" style="endArrow=classic;html=1;rounded=0;exitX=1;exitY=0.5;exitDx=0;exitDy=0;dashed=1;" edge="1" parent="1">
          <mxGeometry width="50" height="50" relative="1" as="geometry">
            <mxPoint x="330" y="294.86" as="sourcePoint" />
            <mxPoint x="600" y="294.86" as="targetPoint" />
          </mxGeometry>
        </mxCell>
        <mxCell id="PxHE6Z1qSMxtlgOlSAJU-16" value="Image" style="edgeLabel;html=1;align=center;verticalAlign=middle;resizable=0;points=[];" vertex="1" connectable="0" parent="PxHE6Z1qSMxtlgOlSAJU-15">
          <mxGeometry x="-0.1396" y="1" relative="1" as="geometry">
            <mxPoint y="-7" as="offset" />
          </mxGeometry>
        </mxCell>
      </root>
    </mxGraphModel>
  </diagram>
</mxfile>
